# xmcd CD database file generated by OrangeCD 5.1
#
# Track frame offsets:
#	150
#	19212
#	32919
#	51741
#	65556
#	82568
#	103344
#	117866
#	129224
#	143824
#	157803
#	174108
#	188364
#	216759
#	231216
#	246900
#	255362
#
# Disc length: 3636 seconds
#
# Revision: 0
# Processed by: cddbd v1.5PL3 Copyright (c) Steve Scherf et al.
# Submitted via: OrangeCD 5.1
#
DISCID=db0e3211
DTITLE=HANK WILLIAMS III - Live At The Continental Club
DYEAR=1900
DGENRE=
TTITLE0=Ramblin Kind Of Man
TTITLE1=I Don't Know
TTITLE2=Cocaine Blues
TTITLE3=One Horse Town
TTITLE4=Texasee
TTITLE5=Wine Spodie Odie
TTITLE6=Life Of Sin
TTITLE7=The Things We Used To Do
TTITLE8=If The Shoe Fits
TTITLE9=On My Own Again
TTITLE10=Move It On Over
TTITLE11=Lonesome Blues
TTITLE12=Orange Blossom Special
TTITLE13=Women I've Never Had
TTITLE14=Mississippi Mud
TTITLE15=87 Southbound
TTITLE16=Dick In Dixie
EXTD=
EXTT0=
EXTT1=
EXTT2=
EXTT3=
EXTT4=
EXTT5=
EXTT6=
EXTT7=
EXTT8=
EXTT9=
EXTT10=
EXTT11=
EXTT12=
EXTT13=
EXTT14=
EXTT15=
EXTT16=
PLAYORDER=
